<svg width="45.5" height="39" viewBox="0 0 45.5 39" fill="none" xmlns="http://www.w3.org/2000/svg">
<g clip-path="url(#clip0_3_41)">
<!-- <path fill-rule="evenodd" clip-rule="evenodd" d="M106.453 21.2166C106.211 21.2582 105.963 21.2774 105.709 21.2774H102.551V26.568H101.25V12.3106H105.709C108.17 12.3106 110.167 14.3181 110.167 16.7924C110.167 18.6049 109.095 20.1681 107.553 20.8746L110.879 26.568H109.579L106.45 21.2134L106.453 21.2166ZM102.551 13.6212H105.709C107.454 13.6212 108.866 15.0438 108.866 16.7956C108.866 18.5474 107.451 19.9699 105.709 19.9699H102.551V13.618V13.6212Z" fill="#FBFBFB"/>
<path d="M64.154 26.5711H73.0735V23.9562H66.7551V21.2806H70.4724V18.6657H66.7551V14.9287H73.0735V12.3138H64.154V26.5711Z" fill="#FBFBFB"/>
<path d="M215.08 26.6031H224V23.9882H217.682V21.3125H221.399V18.6976H217.682V14.9607H224V12.3457H215.08V26.6031Z" fill="#FBFBFB"/>
<path d="M61.6769 12.3138H59.0757V26.5711H61.6769V12.3138Z" fill="#FBFBFB"/>
<path d="M124.753 26.5711V12.3138H126.053L133.424 24.4325V12.3138H134.725V26.5711H133.424L126.053 14.4524V26.5711H124.753Z" fill="#FBFBFB"/>
<path d="M137.202 12.3138V13.6212H141.012V26.5711H142.312V13.6212H146.122V12.3138H137.202Z" fill="#FBFBFB"/>
<path d="M113.359 12.3138V26.5711H122.279V25.2637H114.66V21.2806H119.678V19.9731H114.66V13.6212H122.279V12.3138H113.359Z" fill="#FBFBFB"/> -->
<!-- <path fill-rule="evenodd" clip-rule="evenodd" d="M98.7733 26.5711L92.9191 12.3138H91.6186L85.7644 26.5711H87.065L88.6995 22.588H95.8319L97.4664 26.5711H98.7669H98.7733ZM95.3009 21.2774L92.2705 13.8961L89.24 21.2774H95.3009Z" fill="#FBFBFB"/> -->
<!-- <path fill-rule="evenodd" clip-rule="evenodd" d="M187.492 26.6031L192.694 12.3457H195.295L200.498 26.6031H197.896L196.92 23.9275H191.069L190.093 26.6031H187.492ZM195.966 21.3093L193.995 15.9069L192.023 21.3093H195.963H195.966Z" fill="#FBFBFB"/> -->
<!-- <path fill-rule="evenodd" clip-rule="evenodd" d="M52.2613 21.2774C54.7225 21.2774 56.7194 19.2698 56.7194 16.7956C56.7194 14.3213 54.7225 12.3138 52.2613 12.3138H47.8031V26.5711H50.4042V21.2806H52.2613V21.2774ZM54.1215 16.7956C54.1215 17.8281 53.2884 18.6625 52.2644 18.6625H50.4074V14.9255H52.2644C53.2915 14.9255 54.1215 15.763 54.1215 16.7924V16.7956Z" fill="#FBFBFB"/> -->
<!-- <path fill-rule="evenodd" clip-rule="evenodd" d="M211.891 16.8563C211.891 18.5953 210.905 20.1042 209.465 20.8458L212.603 26.6287H210.002L207.131 21.3381H205.573V26.6287H202.971V12.3713H207.43C209.891 12.3713 211.888 14.3789 211.888 16.8531L211.891 16.8563ZM207.433 18.7264C208.46 18.7264 209.29 17.8889 209.29 16.8595C209.29 15.8302 208.457 14.9926 207.433 14.9926H205.576V18.7296H207.433V18.7264Z" fill="#FBFBFB"/> -->
<!-- <path d="M79.7608 18.135C78.8005 17.9016 77.9038 17.3102 77.9038 16.5782C77.9038 15.5457 78.7369 14.7113 79.7608 14.7113C80.7847 14.7113 81.4016 15.242 81.6179 16.2202H84.219C83.971 13.7907 82.2221 12.0964 79.7608 12.0964C77.2996 12.0964 75.3026 14.1039 75.3026 16.5782C75.3026 18.7104 77.2233 20.133 79.7608 20.7499C80.7211 20.9833 81.6179 21.5747 81.6179 22.3067C81.6179 23.3393 80.7847 24.1736 79.7608 24.1736C78.7369 24.1736 78.12 23.643 77.9038 22.6648H75.3026C75.5507 25.0943 77.2996 26.7885 79.7608 26.7885C82.2221 26.7885 84.219 24.781 84.219 22.3067C84.219 20.1745 82.2984 18.752 79.7608 18.135Z" fill="#FBFBFB"/> -->
<!-- <path d="M152.5 18.135C151.54 17.9016 150.643 17.3102 150.643 16.5782C150.643 15.5457 151.477 14.7113 152.5 14.7113C153.524 14.7113 154.141 15.242 154.358 16.2202H156.959C156.711 13.7907 154.962 12.0964 152.5 12.0964C150.039 12.0964 148.042 14.1039 148.042 16.5782C148.042 18.7104 149.963 20.133 152.5 20.7499C153.461 20.9833 154.358 21.5747 154.358 22.3067C154.358 23.3393 153.524 24.1736 152.5 24.1736C151.477 24.1736 150.86 23.643 150.643 22.6648H148.042C148.29 25.0943 150.039 26.7885 152.5 26.7885C154.962 26.7885 156.959 24.781 156.959 22.3067C156.959 20.1745 155.038 18.752 152.5 18.135Z" fill="#FBFBFB"/> -->
<!-- <path fill-rule="evenodd" clip-rule="evenodd" d="M173.494 19.4712C173.494 23.5279 170.222 26.8173 166.187 26.8173C165.821 26.8173 165.458 26.7885 165.106 26.7374C165.761 26.91 166.397 27.2137 166.972 27.6484C168.212 28.5947 169.98 28.3485 170.922 27.1018L172.995 28.681C171.192 31.0689 167.812 31.5452 165.427 29.7487C164.187 28.8025 162.419 29.0486 161.477 30.2953L159.404 28.7161C160.622 27.0986 162.565 26.3602 164.435 26.6063C161.245 25.8167 158.879 22.9237 158.879 19.4712C158.879 15.4146 162.151 12.1252 166.187 12.1252C170.222 12.1252 173.494 15.4146 173.494 19.4712ZM170.893 19.4712C170.893 22.083 168.785 24.2024 166.187 24.2024C163.589 24.2024 161.48 22.083 161.48 19.4712C161.48 16.8595 163.589 14.7401 166.187 14.7401C168.785 14.7401 170.893 16.8595 170.893 19.4712Z" fill="#FBFBFB"/> -->
<!-- <path d="M178.572 12.3425H175.971V22.3355C175.971 24.8098 178.203 26.8173 180.957 26.8173C183.711 26.8173 185.943 24.8098 185.943 22.3355V12.3425H183.342V22.3355C183.342 23.368 182.274 24.2024 180.957 24.2024C179.641 24.2024 178.572 23.3648 178.572 22.3355V12.3425Z" fill="#FBFBFB"/> -->
<path d="M44.566 12.3963L23.7123 24.5023C23.0414 24.8923 22.2178 24.8923 21.5468 24.5023L0.690033 12.3963L21.5468 0.290356C22.2178 -0.0996439 23.0414 -0.0996439 23.7123 0.290356L44.566 12.3963ZM0 13.4608V24.9435C0 25.7203 0.413384 26.4395 1.08434 26.8295L21.5468 38.7054C22.2178 39.0954 23.0414 39.0954 23.7123 38.7054L44.1748 26.8295C44.8458 26.4395 45.2592 25.7203 45.2592 24.9435V13.4608L23.7123 25.9664C23.0414 26.3564 22.2178 26.3564 21.5468 25.9664L0 13.4608ZM25.687 19.8031L9.23436 10.2545C8.93227 10.0787 8.54433 10.1842 8.37261 10.4879C8.2009 10.7916 8.30266 11.1816 8.60474 11.3542L25.0574 20.9028C25.3595 21.0786 25.7475 20.9731 25.9192 20.6695C26.0941 20.3658 25.9891 19.9758 25.687 19.8031ZM31.1723 16.6192L14.7196 7.0706C14.4176 6.89478 14.0296 7.00027 13.8579 7.30396C13.6862 7.60765 13.7879 7.99765 14.09 8.17027L30.5268 17.7125C30.8225 17.8819 31.2041 17.802 31.3886 17.5143C31.5857 17.2074 31.4839 16.8014 31.1723 16.6192ZM36.6544 13.4385L20.2017 3.88667C19.8901 3.70765 19.4895 3.82273 19.3241 4.1456C19.1683 4.44929 19.2923 4.82331 19.5849 4.99593L36.0216 14.5349C36.3237 14.7108 36.7117 14.6053 36.8834 14.3016C37.0583 13.9979 36.9533 13.6079 36.6512 13.4353L36.6544 13.4385Z" fill="#FBFBFB"/>
</g>
<defs>
<clipPath id="clip0_3_41">
<rect width="224" height="39" fill="white"/>
</clipPath>
</defs>
</svg>
