<svg width="58" height="58" viewBox="0 0 58 58" fill="none" xmlns="http://www.w3.org/2000/svg">
<path d="M4.93 23.6108C4.47084 24.0217 4.18083 24.6017 4.1325 25.2058C4.08417 25.8342 4.2775 26.4625 4.7125 26.9458L23.055 47.7775C24.2875 49.1792 25.9792 50.0008 27.8158 50.1217C29.6767 50.2183 31.4408 49.6383 32.8425 48.43L39.9958 42.1225C41.5183 40.7692 42.5333 38.9083 42.8475 36.8783C42.9683 36.0808 43.1858 35.3317 43.4758 34.5825L48.2367 22.8858C48.7442 21.6533 48.1642 20.3 46.9317 19.8167C46.6417 19.6958 46.3517 19.6475 46.0375 19.6475C45.7233 19.6475 45.4333 19.6958 45.1192 19.8167C44.5392 20.0825 44.1042 20.5175 43.8383 21.1217L41.3733 27.1875C40.9383 28.2267 40.02 28.9758 38.9325 29.1692C37.8208 29.3383 36.685 28.9758 35.96 28.1058L20.1792 10.15C19.3092 9.18333 17.8108 9.08666 16.8442 9.95667C16.3608 10.3675 16.0708 10.9475 16.0225 11.5758C15.9983 12.18 16.1917 12.7842 16.6025 13.2433L25.7133 23.5867C25.9308 23.8525 25.9067 24.2392 25.6408 24.4808C25.375 24.6983 24.9883 24.6742 24.7467 24.4325L15.66 14.1133H15.6358L10.875 8.7C10.4642 8.21666 9.88417 7.92667 9.25583 7.9025C8.6275 7.85417 8.0475 8.0475 7.56417 8.4825C7.105 8.89333 6.815 9.47333 6.76667 10.0775C6.71833 10.7058 6.93583 11.3342 7.34667 11.8175L8.65167 13.2675C8.65167 13.2675 8.67583 13.2917 8.67583 13.3158L21.2183 27.55C21.4358 27.8158 21.4117 28.2025 21.17 28.4442C20.88 28.6617 20.4933 28.6375 20.2517 28.3958L7.70917 14.1375C6.83917 13.1708 5.365 13.0983 4.39833 13.9683C3.915 14.3792 3.625 14.9592 3.57667 15.5633C3.5525 16.1917 3.74583 16.82 4.15667 17.3033L16.6992 31.5133C16.9167 31.8033 16.8925 32.1658 16.6508 32.4075C16.3608 32.6733 15.9983 32.625 15.7325 32.3592L8.24083 23.8525C7.83 23.3692 7.25 23.0792 6.62167 23.055C6.0175 23.0067 5.38917 23.2 4.93 23.635V23.6108Z" fill="#FBFBFB"/>
<path d="M50.6292 30.45C50.8708 30.45 51.0883 30.3292 51.2092 30.0875C52.78 26.8492 52.9733 23.1758 51.765 19.7683C50.5808 16.3608 48.1158 13.63 44.8775 12.0833C44.5633 11.9383 44.1767 12.0833 44.0317 12.3733C43.8867 12.6875 44.0317 13.0742 44.3217 13.2192C47.27 14.6208 49.4933 17.11 50.5567 20.1792C51.6442 23.2483 51.4508 26.5833 50.0492 29.5075C49.9042 29.8217 50.0492 30.2083 50.3392 30.3533C50.4358 30.4017 50.5325 30.4258 50.605 30.4258L50.6292 30.45Z" fill="#FBFBFB"/>
<path d="M54.5442 25.6167C54.7858 25.6167 55.0033 25.4958 55.1242 25.2542C56.1392 23.1275 56.2842 20.7108 55.4867 18.4875C54.6892 16.2642 53.0942 14.4517 50.9675 13.4367C50.6533 13.2917 50.2667 13.4367 50.1217 13.7267C49.9767 14.0408 50.1217 14.4275 50.4117 14.5725C54.1817 16.385 55.7767 20.9283 53.9642 24.6983C53.8192 25.0125 53.9642 25.3992 54.2542 25.5442C54.3508 25.5925 54.4475 25.6167 54.52 25.6167H54.5442Z" fill="#FBFBFB"/>
<path d="M16.965 48.0917C17.3033 48.0917 17.5692 47.8258 17.5933 47.4875C17.5933 47.1492 17.3517 46.835 16.9892 46.8108C13.7267 46.6175 10.7542 45.1433 8.57916 42.7025C6.42833 40.2617 5.34083 37.12 5.55833 33.8575C5.55833 33.5192 5.31666 33.205 4.95416 33.1808C4.5675 33.1567 4.30167 33.4225 4.2775 33.785C4.06 37.3858 5.24416 40.8417 7.6125 43.5483C10.005 46.255 13.2917 47.8742 16.8925 48.0917C16.8925 48.0917 16.9167 48.0917 16.9408 48.0917H16.965Z" fill="#FBFBFB"/>
<path d="M10.8267 49.1308C11.165 49.1308 11.4308 48.865 11.455 48.5267C11.455 48.1883 11.2133 47.8742 10.8508 47.85C6.67 47.5842 3.48 43.9592 3.74583 39.7783C3.74583 39.44 3.50416 39.1258 3.14166 39.1017C2.755 39.1017 2.48917 39.3433 2.465 39.7058C2.15083 44.5875 5.8725 48.8167 10.7542 49.1067C10.7542 49.1067 10.7783 49.1067 10.8025 49.1067L10.8267 49.1308Z" fill="#FBFBFB"/>
</svg>
